<?xml version="1.0" standalone="no"?>
<!DOCTYPE svg PUBLIC "-//W3C//DTD SVG 20010904//EN"
 "http://www.w3.org/TR/2001/REC-SVG-20010904/DTD/svg10.dtd">
<svg version="1.0" xmlns="http://www.w3.org/2000/svg"
 width="16.000000pt" height="16.000000pt" viewBox="0 0 16.000000 16.000000"
 preserveAspectRatio="xMidYMid meet">
<metadata>
Created by potrace 1.11, written by Peter Selinger 2001-2013
</metadata>
<g transform="translate(0.000000,16.000000) scale(0.001280,-0.001280)"
fill="#000000" stroke="none">
<path d="M0 6250 l0 -6250 6250 0 6250 0 0 6250 0 6250 -6250 0 -6250 0 0
-6250z m6425 5589 c675 -66 1272 -287 1893 -700 73 -49 137 -89 141 -89 12 0
138 134 222 235 86 105 197 260 260 363 l44 72 172 0 c173 0 173 0 173 -22 1
-13 5 -266 10 -563 23 -1293 38 -2290 34 -2297 -3 -5 -90 -8 -194 -8 -170 0
-189 2 -195 18 -4 9 -31 85 -60 167 -256 728 -578 1272 -992 1676 -432 422
-945 659 -1570 724 -182 20 -526 17 -713 -5 -623 -73 -1096 -295 -1469 -692
-304 -324 -492 -670 -555 -1023 -33 -183 -17 -453 36 -630 114 -376 409 -707
818 -917 259 -132 604 -253 985 -343 83 -19 168 -40 190 -45 40 -10 267 -54
440 -85 860 -158 1358 -283 1835 -462 167 -63 172 -65 345 -148 465 -223 846
-569 1181 -1075 261 -392 440 -848 514 -1310 42 -258 45 -310 45 -685 0 -368
-3 -419 -41 -670 -125 -820 -486 -1518 -1085 -2100 -336 -326 -687 -562 -1101
-738 -100 -43 -319 -121 -383 -137 -16 -4 -64 -17 -105 -28 -290 -78 -606
-115 -975 -114 -279 0 -399 10 -638 52 -599 105 -1275 410 -1862 839 -38 28
-73 51 -78 51 -5 0 -108 -89 -230 -197 -121 -109 -295 -264 -386 -345 l-166
-148 -147 0 -148 0 0 1560 0 1560 181 -2 181 -3 39 -113 c229 -677 584 -1313
979 -1752 311 -347 732 -662 1103 -826 45 -19 100 -44 122 -54 64 -28 272 -96
365 -118 248 -60 430 -82 683 -82 392 0 696 55 1073 194 97 35 307 137 414
199 780 456 1205 1043 1280 1769 57 556 -81 1092 -384 1497 -281 375 -663 635
-1221 833 -277 98 -546 165 -950 237 -949 170 -1437 292 -1958 490 -497 189
-912 515 -1267 996 -356 483 -553 1029 -578 1601 -31 728 139 1358 526 1949
359 547 824 953 1356 1185 511 223 1189 319 1811 259z"/>
</g>
</svg>
